<svg width="100" height="107" viewBox="0 0 100 107" fill="none" xmlns="http://www.w3.org/2000/svg">
<path d="M1.60428 41.3112C0.458365 41.082 0.0572957 40.3944 0.0572957 39.2485C0.0572957 31.399 0.0572957 23.4922 0.0572957 15.6427C0.0572957 10.4861 3.72422 6.93378 8.82353 6.93378C12.4332 6.93378 16.0428 6.87648 19.5951 6.93378C20.4545 6.93378 20.6837 6.76189 20.6837 5.84516C20.6837 2.86578 22.9183 0.402071 25.8403 0.0582974C28.7051 -0.285477 31.398 1.54798 32.2002 4.41277C32.2575 4.69925 32.3148 5.04302 32.372 5.3295C32.4866 6.87648 32.4866 6.87648 34.0909 6.87648C42.3988 6.87648 50.7067 6.87648 59.0145 6.87648C59.9313 6.87648 60.275 6.76189 60.3323 5.73057C60.4469 2.35012 63.0825 -0.056294 66.2911 0.0010017C69.4423 0.0582974 71.9633 2.6366 71.9633 5.95975C71.9633 6.76189 72.1925 6.87648 72.9374 6.87648C76.547 6.81918 80.1566 6.87648 83.709 6.87648C88.9802 6.87648 92.5898 10.4288 92.5898 15.7C92.5898 30.3677 92.5898 44.9781 92.5898 59.6458C92.5898 60.4479 92.819 60.9636 93.2773 61.5938C99.6371 69.7298 101.299 78.7252 97.6891 88.3509C94.0795 98.0339 86.8029 103.821 76.6043 105.769C76.0313 105.883 75.4011 105.711 74.8854 106.113C72.9374 106.113 70.9893 106.113 69.0413 106.113C67.9527 105.654 66.8067 105.654 65.6608 105.368C57.0092 103.076 50.8212 97.862 47.0397 89.7833C46.7533 89.153 46.4668 88.9239 45.7219 88.9239C36.7838 88.9239 27.8457 88.9239 18.9076 88.9239C17.5325 88.9239 17.1887 88.6947 16.7876 87.4342C17.0168 86.1737 17.4752 85.7726 18.8503 85.7726C27.1008 85.7726 35.4087 85.7726 43.6593 85.7726C45.4927 85.7726 45.4927 85.7726 45.149 83.9391C45.0917 83.6527 45.0344 83.3089 45.0344 83.0224C45.0344 82.163 44.6333 82.0484 43.8312 82.0484C32.1429 82.1057 20.5118 82.0484 8.82353 82.1057C6.93277 82.1057 5.2139 81.7046 3.60963 80.616C3.49503 80.5014 3.32315 80.3868 3.15126 80.4441C2.97937 83.2516 5.2139 85.7153 8.02139 85.7726C9.2246 85.8299 10.4278 85.7726 11.631 85.7726C13.0061 85.7726 13.4072 86.1164 13.6937 87.4342C13.4072 88.5228 12.7769 88.9812 11.6883 88.9239C10.0267 88.8093 8.30787 89.0957 6.6463 88.752C2.86478 87.9498 0.171887 84.8559 0 81.0171C0 78.496 0.0572957 75.9177 0.0572957 73.3394C0.0572957 64.4013 0.0572957 55.4632 0.0572957 46.5251C0.0572957 45.0354 0.286478 44.6916 1.60428 44.3478C2.86478 44.6343 3.15126 45.0354 3.20856 46.3532C3.20856 50.3066 3.20856 54.2027 3.20856 58.1561C3.20856 63.2554 3.20856 68.3547 3.20856 73.5113C3.20856 76.7199 5.44309 79.0117 8.59435 79.0117C20.3973 79.0117 32.2002 79.0117 44.0031 79.0117C44.6906 79.0117 44.8625 78.8398 44.8625 78.1523C44.9771 72.2508 46.9251 66.9223 50.4775 62.2241C50.6494 61.9949 50.9358 61.7657 50.9358 61.4219C48.9878 60.7344 48.3002 59.7604 48.3002 57.755C48.3002 56.7237 48.2429 55.6924 48.3002 54.6611C48.4148 52.8276 49.6753 51.5671 51.5088 51.5098C52.712 51.4525 53.8579 51.4525 55.0611 51.5098C56.7227 51.5671 57.9259 52.5984 58.2124 54.26C58.2697 54.5465 58.327 54.8329 58.3843 55.1767C69.2704 49.5617 79.5837 50.3639 89.5531 57.5831C89.5531 57.1821 89.5531 56.8383 89.5531 56.5518C89.5531 49.4472 89.5531 42.3425 89.5531 35.1805C89.5531 34.2065 89.3239 34.0346 88.3499 34.0346C60.3323 34.0346 32.372 34.0346 4.35447 34.0346C4.23988 34.0346 4.06799 34.0346 3.9534 34.0346C3.38044 33.9773 3.15126 34.1492 3.20856 34.7795C3.26585 36.2692 3.20856 37.7588 3.20856 39.2485C3.20856 40.3371 2.75019 41.082 1.60428 41.3112ZM46.2949 24.0652C60.3323 24.0652 74.3698 24.0652 88.4645 24.0652C89.2666 24.0652 89.5531 23.8933 89.4958 23.0339C89.4385 20.9139 89.4958 18.7367 89.4958 16.6167C89.4958 15.8146 89.5531 14.9552 89.3812 14.153C88.8656 11.632 86.7456 10.0277 83.8808 10.0277C80.615 9.97045 77.3491 10.0277 74.1406 10.0277C72.0206 10.0277 72.0206 10.0277 72.0206 12.0904C72.0206 13.6947 72.0206 13.6947 73.5676 13.752C73.7395 13.752 73.9114 13.752 74.0833 13.8093C74.9427 14.0384 75.4584 14.4968 75.4011 15.4135C75.3438 16.273 74.8281 16.7886 73.9687 16.8459C73.453 16.9032 72.9374 16.9032 72.4217 16.8459C71.7915 16.7886 71.4477 17.0178 71.1039 17.5335C68.9267 20.9712 64.1138 21.315 61.7074 18.1064C60.9053 17.0751 60.1604 16.674 59.0145 16.8459C58.8426 16.8459 58.6707 16.8459 58.4989 16.8459C57.5821 16.7886 56.9519 16.2157 56.9519 15.3562C56.8946 14.4968 57.4675 13.9238 58.3843 13.752C59.0145 13.6374 59.9313 14.0957 60.275 13.4655C60.5615 12.9498 60.3323 12.0904 60.3896 11.4028C60.3896 11.2882 60.3896 11.1164 60.3896 11.0018C60.5042 10.1996 60.1604 9.97045 59.3583 9.97045C54.4882 10.0277 49.6753 9.97045 44.8052 9.97045C41.0237 9.97045 37.1849 9.97045 33.4034 9.97045C32.7158 9.97045 32.4293 10.1423 32.5439 10.8299C32.6012 11.0591 32.5439 11.2882 32.5439 11.5747C32.6012 12.2623 32.2575 13.0644 32.6585 13.5801C33.0023 14.0384 33.8617 13.6947 34.4347 13.752C34.5493 13.752 34.6639 13.8093 34.7212 13.8093C35.5233 14.0384 35.9817 14.5541 35.9244 15.4135C35.8671 16.273 35.3514 16.7886 34.4347 16.8459C33.9763 16.8459 33.518 16.9032 33.0596 16.8459C32.2575 16.7313 31.8564 17.0751 31.398 17.7054C29.2781 20.9139 24.5225 21.2577 22.1734 18.1637C21.3713 17.0751 20.5691 16.6167 19.3086 16.8459C19.194 16.8459 19.0222 16.8459 18.9076 16.8459C17.9908 16.7886 17.3606 16.2157 17.3606 15.3562C17.3033 14.4968 17.9908 13.8666 18.9076 13.752C19.5378 13.6947 20.34 14.0384 20.6837 13.5801C20.9702 13.1217 20.7983 12.3196 20.7983 11.6893C20.7983 11.4028 20.741 11.1164 20.7983 10.8872C20.9129 10.1996 20.5691 10.0277 19.9389 10.0277C16.272 10.0277 12.605 10.0277 8.93812 10.0277C5.55768 10.0277 3.32315 12.205 3.32315 15.5854C3.32315 18.0491 3.38044 20.5128 3.26585 22.9193C3.26585 23.8933 3.55233 24.1225 4.46906 24.1225C18.3346 24.0652 32.3147 24.0652 46.2949 24.0652ZM72.1352 54.6611C58.7853 54.6611 47.8992 65.4899 47.8992 78.8398C47.8992 92.1897 58.728 103.076 72.0779 103.076C85.4851 103.076 96.3713 92.247 96.3713 78.8398C96.3713 65.4899 85.5424 54.6611 72.1352 54.6611ZM46.2376 27.2164C46.2376 27.1591 46.2376 27.1591 46.2376 27.2164C32.8304 27.2164 19.3659 27.2164 5.95875 27.2164C5.04202 27.2164 3.8961 26.8154 3.38044 27.3883C2.80749 27.9613 3.32315 29.1072 3.20856 29.9666C3.09397 30.7688 3.43774 30.9407 4.23988 30.9407C31.7991 30.9407 59.4156 30.9407 86.9748 30.8834C89.4958 30.8834 89.4958 30.8834 89.5531 28.3051C89.5531 27.3883 89.3812 27.1591 88.4072 27.1591C74.3698 27.2164 60.275 27.2164 46.2376 27.2164ZM68.8694 10.1996C68.8694 8.82453 68.8694 7.50673 68.8694 6.13164C68.8694 4.35547 67.7235 3.09497 66.1192 3.09497C64.5722 3.09497 63.4263 4.24088 63.369 6.01705C63.3117 8.76724 63.3117 11.5174 63.369 14.3249C63.4263 16.0438 64.5722 17.1897 66.1192 17.1897C67.6662 17.1324 68.8121 15.9292 68.8121 14.2103C68.9267 12.8925 68.8694 11.5174 68.8694 10.1996ZM29.2781 10.1996C29.2781 8.76724 29.2781 7.39214 29.2781 5.95975C29.2208 4.29818 28.0749 3.15226 26.5852 3.15226C25.0382 3.15226 23.835 4.35547 23.835 6.01705C23.835 8.76724 23.835 11.5174 23.835 14.3249C23.835 15.9865 25.0382 17.1897 26.5852 17.1897C28.0749 17.1897 29.2208 15.9865 29.2781 14.3249C29.2781 12.9498 29.2781 11.5747 29.2781 10.1996ZM51.2796 56.4945C51.2796 58.7863 50.9931 58.4426 53.2277 58.4426C53.3423 58.4426 53.5141 58.4426 53.6287 58.4426C54.3736 58.2707 54.9465 57.8696 55.1184 57.0675C55.4622 54.7756 55.2903 54.6038 52.9985 54.6038C51.1077 54.6038 51.2796 54.3173 51.2796 56.4945Z" fill="#055FC8"/>
<path d="M1.60449 41.3112C2.75041 41.082 3.20877 40.3945 3.20877 39.2486C3.15147 37.7589 3.20877 36.2692 3.20877 34.7795C3.20877 34.2065 3.38066 33.9774 3.95361 34.0347C4.06821 34.0347 4.24009 34.0347 4.35468 34.0347C32.3723 34.0347 60.3325 34.0347 88.3501 34.0347C89.2669 34.0347 89.5533 34.2638 89.5533 35.1806C89.496 42.2852 89.5533 49.3899 89.5533 56.5519C89.5533 56.8956 89.5533 57.2394 89.5533 57.5832C79.5839 50.3639 69.2707 49.5618 58.3845 55.1768C58.3272 54.8903 58.2699 54.6038 58.2126 54.26C57.9261 52.6557 56.7229 51.5671 55.0613 51.5098C53.8581 51.4525 52.7122 51.4525 51.509 51.5098C49.6756 51.5671 48.415 52.8276 48.3005 54.6611C48.2432 55.6924 48.2432 56.7237 48.3005 57.7551C48.3005 59.8177 49.0453 60.7917 50.9361 61.422C50.9361 61.7658 50.6496 61.9376 50.4777 62.2241C46.9254 66.9224 45.0346 72.2509 44.8627 78.1523C44.8627 78.8399 44.6335 79.0117 44.0033 79.0117C32.2004 79.0117 20.3975 79.0117 8.59456 79.0117C5.5006 79.0117 3.26607 76.7199 3.20877 73.5114C3.15147 68.4121 3.20877 63.3127 3.20877 58.1561C3.20877 54.2027 3.20877 50.3066 3.20877 46.3532C3.20877 45.0354 2.865 44.6344 1.60449 44.3479C1.60449 43.3166 1.60449 42.2852 1.60449 41.3112ZM85.7718 42.8582C85.7718 42.2852 85.7718 41.7696 85.7718 41.1966C85.7718 39.1913 84.454 37.8162 82.3914 37.8162C81.3027 37.8162 80.1568 37.8162 79.0682 37.8162C77.1775 37.8735 75.8024 39.1913 75.7451 41.082C75.7451 42.2279 75.7451 43.4311 75.7451 44.5771C75.8024 46.3532 77.0629 47.671 78.7817 47.7283C79.8704 47.7856 81.0163 47.7856 82.1049 47.7283C84.5113 47.7283 85.7145 46.4678 85.7145 44.0614C85.7718 43.6603 85.7718 43.2593 85.7718 42.8582ZM30.7107 56.5519C30.7107 55.9789 30.7107 55.4059 30.7107 54.7757C30.6534 52.8849 29.3929 51.5671 27.5021 51.5098C26.2989 51.4525 25.0957 51.4525 23.8925 51.5098C22.059 51.5671 20.7985 52.8849 20.7412 54.6611C20.7412 55.807 20.7412 57.0102 20.7412 58.1561C20.7985 59.9323 22.0017 61.3074 23.8352 61.422C25.0957 61.4793 26.2989 61.4793 27.5594 61.422C29.3929 61.3647 30.6534 59.9896 30.7107 58.1561C30.7107 57.6405 30.7107 57.1248 30.7107 56.5519ZM30.7107 42.8009C30.7107 42.2279 30.7107 41.7123 30.7107 41.1393C30.6534 39.1913 29.3356 37.8162 27.3875 37.8162C26.2416 37.8162 25.0957 37.7589 23.9498 37.8162C22.059 37.8735 20.7412 39.2486 20.6839 41.1393C20.6839 42.2852 20.6839 43.4884 20.6839 44.6344C20.7412 46.3532 22.0017 47.671 23.6633 47.7283C24.9238 47.7856 26.2416 47.7856 27.5021 47.7283C29.3929 47.671 30.5961 46.3532 30.6534 44.4625C30.7107 43.8895 30.7107 43.3738 30.7107 42.8009ZM61.9941 42.8009C61.9941 43.3166 61.9941 43.8322 61.9941 44.3479C62.0514 46.4105 63.2546 47.671 65.3746 47.7283C66.5778 47.7283 67.7237 47.7856 68.9269 47.7283C70.7031 47.671 71.9636 46.3532 72.0209 44.5771C72.0781 43.3739 72.0781 42.1706 72.0209 40.9674C71.9636 39.1913 70.6458 37.8162 68.8696 37.7589C67.6664 37.7016 66.4632 37.7016 65.26 37.7589C63.4265 37.8162 62.1087 39.1913 62.0514 41.0247C61.9941 41.655 61.9941 42.2279 61.9941 42.8009ZM39.5342 65.3181C38.9613 65.3181 38.331 65.3181 37.7581 65.3181C35.8673 65.3754 34.5495 66.6359 34.4922 68.4693C34.4349 69.6726 34.4349 70.8758 34.4922 72.079C34.5495 73.8551 35.9246 75.1729 37.7008 75.2302C38.904 75.2875 40.1072 75.2875 41.3104 75.2302C43.0865 75.1729 44.4044 73.9124 44.4616 72.1363C44.5189 70.8185 44.5189 69.5007 44.4616 68.1829C44.4044 66.5786 43.1438 65.3754 41.5396 65.2608C40.852 65.2608 40.1645 65.3181 39.5342 65.3181ZM53.2279 47.7283C53.2279 47.7283 53.2279 47.7856 53.2279 47.7283C53.7435 47.7856 54.2592 47.7856 54.7749 47.7283C56.8948 47.671 58.2126 46.4105 58.2126 44.2906C58.2126 43.202 58.2699 42.0561 58.2126 40.9674C58.1553 39.134 56.8375 37.8162 55.0613 37.7589C53.8008 37.7016 52.5976 37.7016 51.3371 37.7589C49.6755 37.8162 48.3577 39.0194 48.2432 40.681C48.1286 42.1133 48.1859 43.4884 48.2432 44.9208C48.3577 46.4678 49.561 47.5564 51.1079 47.671C51.8528 47.7856 52.5403 47.7283 53.2279 47.7283ZM6.99028 70.1882C6.99028 70.7612 6.99028 71.2768 6.99028 71.8498C7.04758 73.9697 8.36538 75.2302 10.4853 75.2302C11.5739 75.2302 12.7198 75.2302 13.8085 75.2302C15.5273 75.1729 16.9024 73.9124 17.017 72.1936C17.0743 70.9331 17.0743 69.6153 17.017 68.3548C16.9597 66.6359 15.5846 65.3181 13.8658 65.3181C12.6053 65.2608 11.2875 65.2608 10.027 65.3181C8.42268 65.3754 7.16217 66.6359 7.10488 68.2402C6.93299 68.8704 6.99028 69.558 6.99028 70.1882ZM6.99028 42.8009C6.99028 43.3738 6.99028 43.8895 6.99028 44.4625C7.04758 46.4105 8.25079 47.7283 10.1988 47.7856C11.3448 47.8429 12.548 47.8429 13.7512 47.7856C15.6419 47.7283 16.9024 46.4105 16.9597 44.5771C17.017 43.4311 17.017 42.2279 16.9597 41.082C16.9024 39.3059 15.5846 37.9308 13.8085 37.8735C12.548 37.8162 11.3448 37.8162 10.0842 37.8735C8.30808 37.9308 7.04758 39.3059 6.99028 41.082C6.93299 41.5977 6.99028 42.2279 6.99028 42.8009ZM6.99028 56.4946C6.99028 57.0675 6.99028 57.6405 6.99028 58.2707C7.04758 60.1615 8.30808 61.4793 10.1415 61.5366C11.3448 61.5939 12.548 61.5939 13.7512 61.5366C15.5846 61.4793 16.8451 60.1615 16.9597 58.3853C17.017 57.1821 17.017 55.9789 16.9597 54.7757C16.9024 52.9995 15.5846 51.6817 13.7512 51.6244C12.548 51.5671 11.3448 51.5671 10.1415 51.6244C8.25079 51.6817 7.04758 52.9995 6.99028 54.8903C6.93299 55.3486 6.99028 55.9216 6.99028 56.4946ZM44.4616 56.6091C44.4616 56.0362 44.4616 55.5205 44.4616 54.9476C44.4044 52.8276 43.1438 51.5671 41.0239 51.5671C39.9353 51.5671 38.904 51.5671 37.8153 51.5671C35.8673 51.6244 34.5495 52.9422 34.4922 54.8903C34.4922 55.9789 34.4922 57.0102 34.4922 58.0988C34.5495 60.1042 35.8673 61.4793 37.8726 61.5366C38.9613 61.5366 39.9926 61.5366 41.0812 61.5366C43.1438 61.4793 44.4044 60.2188 44.4616 58.1561C44.4616 57.6405 44.4616 57.1248 44.4616 56.6091ZM20.7412 70.1882C20.7412 70.8185 20.7412 71.4487 20.7412 72.079C20.7985 73.7978 22.1163 75.1729 23.8352 75.2302C25.0957 75.2875 26.4135 75.2875 27.674 75.2302C29.3356 75.1729 30.6534 73.7978 30.7107 72.1936C30.768 70.9331 30.768 69.6153 30.7107 68.3548C30.6534 66.6932 29.3929 65.3754 27.7313 65.3181C26.4135 65.2608 25.0384 65.2608 23.6633 65.3181C22.1163 65.3754 20.7985 66.6932 20.6839 68.2402C20.6839 68.8704 20.7412 69.558 20.7412 70.1882ZM39.4769 47.7283C39.4769 47.7856 39.4769 47.7856 39.4769 47.7283C39.9926 47.7283 40.5082 47.7283 41.0239 47.7283C43.1438 47.671 44.4044 46.4105 44.4044 44.2906C44.4044 43.202 44.4044 42.0561 44.4044 40.9674C44.3471 39.134 43.0293 37.8162 41.1385 37.7589C39.9353 37.7016 38.7894 37.7016 37.5862 37.7589C35.81 37.8162 34.4349 39.134 34.3776 40.9101C34.3203 42.1133 34.3203 43.3166 34.3776 44.5198C34.4349 46.3532 35.7527 47.6137 37.5289 47.671C38.2737 47.7856 38.904 47.7283 39.4769 47.7283Z" fill="white"/>
<path d="M13.8652 87.4914C13.5214 86.1736 13.1203 85.8298 11.8025 85.8298C10.5993 85.8298 9.39611 85.8871 8.1929 85.8298C5.38541 85.7152 3.15088 83.2515 3.32277 80.5013C3.49466 80.444 3.66654 80.5586 3.78114 80.6732C5.32812 81.7045 7.10428 82.1629 8.99504 82.1629C20.6834 82.1629 32.3144 82.1629 44.0027 82.1056C44.8048 82.1056 45.2059 82.2202 45.2059 83.0796C45.2059 83.3661 45.2632 83.7099 45.3205 83.9964C45.6643 85.8298 45.6643 85.8298 43.8308 85.8298C35.5802 85.8298 27.2724 85.8298 19.0218 85.8298C17.6467 85.8298 17.1883 86.1736 16.9591 87.4914C15.9278 87.4914 14.8965 87.4914 13.8652 87.4914Z" fill="white"/>
<path d="M46.295 24.0652C32.3149 24.0652 18.3347 24.0652 4.35458 24.0652C3.43785 24.0652 3.15137 23.836 3.15137 22.862C3.20866 20.3983 3.15137 17.9346 3.20866 15.5281C3.26596 12.1477 5.44319 9.97046 8.82364 9.97046C12.4906 9.97046 16.1575 9.97046 19.8244 9.97046C20.4547 9.97046 20.7984 10.0851 20.6838 10.8299C20.6265 11.1164 20.6838 11.4029 20.6838 11.632C20.6838 12.2623 20.8557 13.0644 20.5692 13.5228C20.2828 13.9812 19.4233 13.6374 18.7931 13.6947C17.8764 13.8093 17.1888 14.4968 17.2461 15.299C17.3034 16.1584 17.8764 16.6741 18.7931 16.7886C18.9077 16.7886 19.0796 16.7886 19.1942 16.7886C20.4547 16.6168 21.2568 17.0178 22.0589 18.1064C24.4081 21.1431 29.1636 20.8566 31.2835 17.6481C31.7419 16.9605 32.143 16.6741 32.9451 16.7886C33.4035 16.8459 33.8618 16.7886 34.3202 16.7886C35.2369 16.7313 35.7526 16.2157 35.8099 15.3563C35.8672 14.5541 35.4088 13.9812 34.6067 13.752C34.5494 13.752 34.4348 13.752 34.3202 13.752C33.69 13.6947 32.8878 14.0385 32.544 13.5801C32.143 13.0644 32.4294 12.2623 32.4294 11.5747C32.4294 11.3456 32.4294 11.1164 32.4294 10.8299C32.3149 10.1423 32.6586 9.97046 33.2889 9.97046C37.0704 10.0278 40.9092 9.97046 44.6907 9.97046C49.5608 9.97046 54.3737 9.97046 59.2438 9.97046C60.046 9.97046 60.3897 10.1996 60.2751 11.0018C60.2751 11.1164 60.2751 11.2883 60.2751 11.4029C60.2751 12.0904 60.447 12.8925 60.1605 13.4655C59.8168 14.153 58.9 13.6374 58.2698 13.752C57.3531 13.9239 56.8374 14.5541 56.8374 15.3563C56.8947 16.1584 57.4677 16.7313 58.3844 16.8459C58.5563 16.8459 58.7281 16.8459 58.9 16.8459C60.1032 16.6741 60.8481 17.0751 61.5929 18.1064C64.0566 21.315 68.8122 20.9712 70.9894 17.5335C71.3332 16.9605 71.677 16.7886 72.3072 16.8459C72.8229 16.9032 73.3385 16.9032 73.8542 16.8459C74.7709 16.7886 75.2293 16.273 75.2866 15.4135C75.3439 14.4968 74.8282 13.9812 73.9688 13.8093C73.7969 13.752 73.625 13.752 73.4531 13.752C71.9062 13.6947 71.9062 13.6947 71.9062 12.0904C71.9062 10.0278 71.9062 10.0278 74.0261 10.0278C77.2919 10.0278 80.5578 10.0278 83.7664 10.0278C86.6311 10.0851 88.6938 11.632 89.2667 14.153C89.4386 14.9552 89.3813 15.8146 89.3813 16.6168C89.3813 18.7367 89.324 20.9139 89.3813 23.0339C89.3813 23.8933 89.1522 24.0652 88.35 24.0652C74.4272 24.0079 60.3897 24.0652 46.295 24.0652Z" fill="#6EC6D8"/>
<path d="M72.1355 54.6611C85.4854 54.6611 96.3142 65.49 96.3715 78.8399C96.3715 92.2471 85.4854 103.076 72.0782 103.076C58.7283 103.076 47.8994 92.1898 47.8994 78.8399C47.9567 65.49 58.7856 54.6611 72.1355 54.6611ZM72.2501 58.4426C60.9628 58.3853 51.7382 67.4954 51.6809 78.7826C51.6236 90.0126 60.7909 99.2944 72.0209 99.3517C83.3654 99.409 92.59 90.2417 92.59 78.9545C92.6473 67.61 83.5373 58.4426 72.2501 58.4426Z" fill="#6EC6D8"/>
<path d="M46.2378 27.2164C60.2753 27.2164 74.3127 27.2164 88.4074 27.2164C89.3242 27.2164 89.5533 27.4456 89.5533 28.3623C89.496 30.9406 89.5533 30.9406 86.975 30.9406C59.4158 30.9406 31.7993 30.9406 4.24011 30.9979C3.43797 30.9979 3.0942 30.8833 3.20879 30.0239C3.32338 29.1644 2.86502 27.9612 3.38068 27.4456C3.95363 26.8726 5.09955 27.2737 5.95898 27.2737C19.4235 27.1591 32.8306 27.1591 46.2378 27.2164C46.2378 27.1591 46.2378 27.1591 46.2378 27.2164Z" fill="#6EC6D8"/>
<path d="M68.8698 10.1997C68.8698 11.5748 68.8698 12.8926 68.8698 14.2677C68.8698 15.9866 67.7239 17.1898 66.177 17.2471C64.63 17.3044 63.4268 16.1012 63.4268 14.3823C63.3695 11.6321 63.3695 8.88191 63.4268 6.07442C63.4268 4.35555 64.63 3.15234 66.177 3.15234C67.7812 3.15234 68.8698 4.41285 68.9271 6.18901C68.9271 7.50681 68.8698 8.82461 68.8698 10.1997Z" fill="white"/>
<path d="M29.278 10.1997C29.278 11.5748 29.278 12.9499 29.278 14.325C29.2208 15.9866 28.1321 17.1325 26.5852 17.1898C25.0382 17.1898 23.835 15.9866 23.835 14.325C23.835 11.5748 23.835 8.82461 23.835 6.01713C23.835 4.29826 24.9809 3.15234 26.5852 3.15234C28.1321 3.15234 29.2208 4.29826 29.278 5.95983C29.3353 7.33493 29.278 8.76732 29.278 10.1997Z" fill="white"/>
<path d="M51.2793 56.4945C51.2793 54.3173 51.1074 54.6037 53.0554 54.6037C55.3472 54.6037 55.5191 54.7756 55.1754 57.0675C55.0608 57.8696 54.4305 58.2707 53.6857 58.4425C53.5711 58.4998 53.3992 58.4425 53.2846 58.4425C51.0501 58.3853 51.3366 58.7863 51.2793 56.4945Z" fill="white"/>
<path d="M85.7713 42.8583C85.7713 43.2593 85.7713 43.6604 85.7713 44.1188C85.7713 46.5252 84.5681 47.7857 82.1617 47.7857C81.073 47.7857 79.9271 47.843 78.8385 47.7857C77.1196 47.6711 75.8018 46.3533 75.8018 44.6344C75.7445 43.4885 75.8018 42.2853 75.8018 41.1394C75.8591 39.2486 77.1769 37.9308 79.125 37.8735C80.2136 37.8735 81.3595 37.8735 82.4481 37.8735C84.4535 37.9308 85.7713 39.2486 85.8286 41.254C85.7713 41.7696 85.7713 42.2853 85.7713 42.8583ZM82.62 42.801C82.62 40.8529 82.62 40.8529 80.672 40.8529C78.8958 40.8529 78.8958 40.8529 78.8958 42.6291C78.8958 44.5771 78.8958 44.5771 80.8439 44.5771C82.62 44.6344 82.62 44.6344 82.62 42.801Z" fill="#055FC8"/>
<path d="M30.7107 56.5519C30.7107 57.1248 30.7107 57.6405 30.7107 58.2134C30.6534 60.1042 29.3929 61.422 27.5594 61.4793C26.2989 61.5366 25.0957 61.5366 23.8352 61.4793C22.059 61.3647 20.7985 60.0469 20.7412 58.2134C20.7412 57.0675 20.7412 55.8643 20.7412 54.7184C20.7985 52.9422 22.059 51.6244 23.8925 51.5671C25.0957 51.5098 26.2989 51.5098 27.5021 51.5671C29.3929 51.6244 30.6534 52.9422 30.7107 54.833C30.7107 55.4059 30.7107 55.9789 30.7107 56.5519ZM25.6113 58.4426C27.5594 58.4426 27.5594 58.4426 27.5594 56.4946C27.5594 54.7184 27.5594 54.7184 25.7259 54.7184C23.7779 54.7184 23.7779 54.7184 23.7779 56.6665C23.8352 58.4426 23.8352 58.4426 25.6113 58.4426Z" fill="#055FC8"/>
<path d="M30.7107 42.801C30.7107 43.3739 30.7107 43.8896 30.7107 44.4625C30.6534 46.3533 29.4502 47.6711 27.5595 47.7284C26.299 47.7857 24.9812 47.7857 23.7207 47.7284C22.0018 47.6711 20.7413 46.296 20.7413 44.6344C20.684 43.4885 20.7413 42.2853 20.7413 41.1394C20.7413 39.2486 22.1164 37.8735 24.0071 37.8162C25.1531 37.7589 26.299 37.8162 27.4449 37.8162C29.3929 37.8735 30.7107 39.1913 30.768 41.1394C30.7107 41.7123 30.7107 42.228 30.7107 42.801ZM25.6114 44.6344C27.5595 44.6344 27.5595 44.6344 27.5595 42.6864C27.5595 40.9102 27.5595 40.9102 25.726 40.9102C23.778 40.9102 23.778 40.9102 23.778 42.8583C23.8353 44.6344 23.8353 44.6344 25.6114 44.6344Z" fill="#055FC8"/>
<path d="M61.9938 42.8008C61.9938 42.2279 61.9938 41.6549 61.9938 41.0246C62.0511 39.1912 63.3116 37.8161 65.2024 37.7588C66.4056 37.7015 67.6088 37.7015 68.812 37.7588C70.5882 37.8161 71.906 39.1912 71.9633 40.9673C72.0206 42.1706 72.0206 43.3738 71.9633 44.577C71.906 46.3531 70.6455 47.6136 68.8693 47.7282C67.7234 47.7855 66.5202 47.7855 65.317 47.7282C63.2543 47.6709 61.9938 46.4104 61.9365 44.3478C61.9938 43.8321 61.9938 43.3165 61.9938 42.8008ZM68.9266 42.6862C68.9266 40.9101 68.9266 40.9101 67.0931 40.9101C65.1451 40.9101 65.1451 40.9101 65.1451 42.8581C65.1451 44.6343 65.1451 44.6343 66.9212 44.6343C68.9266 44.6343 68.9266 44.6343 68.9266 42.6862Z" fill="#055FC8"/>
<path d="M39.5339 65.3179C40.1641 65.3179 40.8517 65.2606 41.4819 65.3179C43.0862 65.4325 44.3467 66.6357 44.404 68.24C44.4613 69.5578 44.4613 70.8756 44.404 72.1934C44.3467 73.9123 43.0289 75.2301 41.2528 75.2873C40.0495 75.3446 38.8463 75.3446 37.6431 75.2873C35.867 75.2301 34.5492 73.9123 34.4346 72.1361C34.3773 70.9329 34.3773 69.7297 34.4346 68.5265C34.4919 66.693 35.867 65.4325 37.7004 65.3752C38.3307 65.2606 38.9036 65.2606 39.5339 65.3179ZM37.5285 70.188C37.5285 72.1361 37.5285 72.1361 39.4766 72.1361C41.3101 72.1361 41.3101 72.1361 41.3101 70.3599C41.3101 68.4119 41.3101 68.4119 39.362 68.4119C37.5285 68.4119 37.5285 68.4119 37.5285 70.188Z" fill="#055FC8"/>
<path d="M53.2272 47.7283C52.5397 47.7283 51.8521 47.7856 51.1646 47.7283C49.6176 47.6137 48.4144 46.4678 48.2998 44.9781C48.1852 43.5457 48.1852 42.1706 48.2998 40.7382C48.4144 39.0767 49.7322 37.8735 51.3938 37.8162C52.6543 37.7589 53.8575 37.7589 55.118 37.8162C56.8942 37.8735 58.1547 39.1913 58.2693 41.0247C58.3266 42.1133 58.3266 43.2593 58.2693 44.3479C58.212 46.4678 56.9515 47.7283 54.8315 47.7856C54.2586 47.7856 53.7429 47.7856 53.2272 47.7283C53.2272 47.7856 53.2272 47.7283 53.2272 47.7283ZM53.2272 44.6343C55.1753 44.6343 55.1753 44.6343 55.1753 42.8582C55.1753 40.5664 55.4618 40.9101 53.1699 40.9101C51.1073 40.9101 51.2792 40.5091 51.2792 42.7436C51.2792 44.6343 51.2792 44.6343 53.2272 44.6343Z" fill="#055FC8"/>
<path d="M6.98959 70.1882C6.98959 69.558 6.9323 68.8704 6.98959 68.2402C7.10418 66.6359 8.36469 65.3754 9.91167 65.3181C11.1722 65.2608 12.49 65.2608 13.7505 65.3181C15.5266 65.3754 16.8444 66.6359 16.9017 68.3548C16.959 69.6153 16.959 70.9331 16.9017 72.1936C16.7871 73.9125 15.4693 75.2303 13.6932 75.2303C12.6046 75.2876 11.4587 75.2303 10.37 75.2303C8.2501 75.2303 6.9323 73.9125 6.875 71.8498C6.9323 71.3342 6.98959 70.7612 6.98959 70.1882ZM12.0316 68.4121C10.0836 68.4121 10.0836 68.4121 10.0836 70.3601C10.0836 72.1363 10.0836 72.1363 11.917 72.1363C13.8651 72.1363 13.8651 72.1363 13.8651 70.1882C13.8651 68.4121 13.8651 68.4121 12.0316 68.4121Z" fill="#055FC8"/>
<path d="M6.99031 42.8009C6.99031 42.2279 6.99031 41.655 6.99031 41.0247C7.0476 39.2486 8.30811 37.8735 10.0843 37.8162C11.3448 37.7589 12.548 37.7589 13.8085 37.8162C15.5847 37.8735 16.9025 39.2486 16.9598 41.0247C17.017 42.1706 17.017 43.3738 16.9598 44.5198C16.9025 46.3532 15.5847 47.671 13.7512 47.7283C12.6053 47.7856 11.4021 47.7856 10.1989 47.7283C8.25081 47.671 7.0476 46.3532 6.99031 44.4052C6.93301 43.8895 6.99031 43.3165 6.99031 42.8009ZM11.9177 44.6343C13.8658 44.6343 13.8658 44.6343 13.8658 42.7436C13.8658 40.9101 13.8658 40.9101 12.0323 40.9101C10.0843 40.9101 10.0843 40.9101 10.0843 42.8009C10.0843 44.6343 10.0843 44.6343 11.9177 44.6343Z" fill="#055FC8"/>
<path d="M6.99031 56.4946C6.99031 55.9216 6.99031 55.4059 6.99031 54.833C7.0476 52.9422 8.30811 51.6244 10.1416 51.5671C11.3448 51.5098 12.548 51.5098 13.7512 51.5671C15.5847 51.6244 16.8452 52.9422 16.9598 54.7184C17.017 55.9216 17.017 57.1248 16.9598 58.328C16.9025 60.1042 15.5847 61.422 13.7512 61.4793C12.548 61.5366 11.3448 61.5366 10.1416 61.4793C8.30811 61.422 7.0476 60.0469 6.99031 58.2134C6.93301 57.6405 6.99031 57.0675 6.99031 56.4946ZM11.8604 58.4426C14.095 58.4426 13.8085 58.6718 13.8085 56.5519C13.8085 54.6611 13.8085 54.6611 11.975 54.6611C10.027 54.6611 10.027 54.6611 10.027 56.6092C10.0843 58.4426 10.0843 58.4426 11.8604 58.4426Z" fill="#055FC8"/>
<path d="M44.4616 56.6092C44.4616 57.1248 44.4616 57.6405 44.4616 58.1561C44.4043 60.2188 43.1438 61.4793 41.0812 61.5366C39.9926 61.5366 38.9612 61.5366 37.8726 61.5366C35.8673 61.4793 34.5495 60.1615 34.4922 58.0988C34.4922 57.0102 34.4922 55.9789 34.4922 54.8903C34.5495 52.8849 35.8673 51.5671 37.8153 51.5671C38.904 51.5671 39.9353 51.5671 41.0239 51.5671C43.2011 51.5671 44.4616 52.8276 44.4616 54.9476C44.4616 55.5205 44.4616 56.0362 44.4616 56.6092ZM37.5289 56.4946C37.5289 58.4426 37.5289 58.4426 39.5342 58.4426C39.5915 58.4426 39.5915 58.4426 39.6488 58.4426C41.5968 58.4426 41.3104 58.6718 41.3104 56.7237C41.3104 54.7184 41.3104 54.7184 39.305 54.7184C37.5289 54.7184 37.5289 54.7184 37.5289 56.4946Z" fill="#055FC8"/>
<path d="M20.7413 70.1882C20.7413 69.558 20.684 68.8704 20.7413 68.2402C20.8559 66.6932 22.1164 65.3754 23.7207 65.3181C25.0385 65.2608 26.4136 65.2608 27.7887 65.3181C29.3929 65.3754 30.7107 66.6932 30.768 68.3548C30.8253 69.6153 30.8253 70.9331 30.768 72.1936C30.7107 73.8552 29.3929 75.173 27.7314 75.2303C26.4709 75.2876 25.1531 75.2876 23.8925 75.2303C22.1737 75.173 20.8559 73.7979 20.7986 72.079C20.684 71.4488 20.7413 70.8185 20.7413 70.1882ZM27.5595 70.2455C27.5595 68.4121 27.5595 68.4121 25.7833 68.4121C23.778 68.4121 23.778 68.4121 23.778 70.4174C23.778 72.1936 23.778 72.1936 25.6114 72.1936C27.5595 72.1363 27.5595 72.1363 27.5595 70.2455Z" fill="#055FC8"/>
<path d="M39.4766 47.7283C38.8463 47.7283 38.2161 47.7283 37.5858 47.7283C35.7524 47.6137 34.4919 46.3532 34.4346 44.5771C34.3773 43.3738 34.3773 42.1706 34.4346 40.9674C34.4919 39.1913 35.867 37.8735 37.6431 37.8162C38.789 37.7589 39.9923 37.7589 41.1955 37.8162C43.0862 37.8735 44.404 39.1913 44.4613 41.0247C44.5186 42.1133 44.4613 43.2593 44.4613 44.3479C44.404 46.4678 43.2008 47.7283 41.0809 47.7856C40.5652 47.7856 40.0495 47.7856 39.4766 47.7283C39.4766 47.7856 39.4766 47.7856 39.4766 47.7283ZM41.3101 42.7436C41.3101 40.8528 41.3101 40.8528 39.4766 40.8528C37.5285 40.8528 37.5285 40.8528 37.5285 42.7436C37.5285 44.6343 37.5285 44.6343 39.362 44.6343C41.3101 44.6343 41.3101 44.6343 41.3101 42.7436Z" fill="#055FC8"/>
<path d="M72.2494 58.4427C83.594 58.4999 92.6467 67.61 92.6467 78.8972C92.6467 90.2417 83.3648 99.3517 72.0775 99.2945C60.8476 99.2372 51.6803 90.0126 51.7376 78.7253C51.7376 67.4954 60.9049 58.3854 72.2494 58.4427ZM89.4954 78.8399C89.4954 69.2715 81.7605 61.5366 72.1921 61.5366C62.6237 61.5366 54.8315 69.2715 54.8315 78.8399C54.8315 88.351 62.6237 96.2005 72.1921 96.2005C81.7032 96.2005 89.4954 88.4083 89.4954 78.8399Z" fill="#055FC8"/>
<path d="M82.6204 42.8008C82.6204 44.577 82.6204 44.577 80.7869 44.577C78.8389 44.577 78.8389 44.577 78.8389 42.6289C78.8389 40.8528 78.8389 40.8528 80.615 40.8528C82.6204 40.8528 82.6204 40.8528 82.6204 42.8008Z" fill="white"/>
<path d="M25.6111 58.4425C23.835 58.4425 23.835 58.4425 23.835 56.6663C23.835 54.7183 23.835 54.7183 25.783 54.7183C27.6165 54.7183 27.6165 54.7183 27.6165 56.4944C27.5592 58.4425 27.5592 58.4425 25.6111 58.4425Z" fill="white"/>
<path d="M25.6111 44.6344C23.835 44.6344 23.835 44.6344 23.835 42.8582C23.835 40.9102 23.835 40.9102 25.783 40.9102C27.6165 40.9102 27.6165 40.9102 27.6165 42.6863C27.5592 44.6344 27.5592 44.6344 25.6111 44.6344Z" fill="white"/>
<path d="M68.9264 42.6864C68.9264 44.6344 68.9264 44.6344 66.9783 44.6344C65.2022 44.6344 65.2021 44.6344 65.2021 42.8583C65.2021 40.9102 65.2021 40.9102 67.1502 40.9102C68.9264 40.8529 68.9264 40.8529 68.9264 42.6864Z" fill="white"/>
<path d="M37.5283 70.1883C37.5283 68.4121 37.5283 68.4121 39.3045 68.4121C41.2525 68.4121 41.2525 68.4121 41.2525 70.3602C41.2525 72.1363 41.2525 72.1363 39.4191 72.1363C37.5283 72.1363 37.5283 72.1363 37.5283 70.1883Z" fill="white"/>
<path d="M53.2279 44.6343C51.2799 44.6343 51.2799 44.6343 51.2799 42.7435C51.2799 40.509 51.108 40.9101 53.1706 40.9101C55.4625 40.9101 55.1187 40.5663 55.176 42.8581C55.176 44.6343 55.176 44.6343 53.2279 44.6343Z" fill="white"/>
<path d="M12.032 68.4121C13.8655 68.4121 13.8655 68.4121 13.8655 70.1883C13.8655 72.1363 13.8655 72.1363 11.9174 72.1363C10.084 72.1363 10.084 72.1363 10.084 70.3602C10.084 68.4121 10.084 68.4121 12.032 68.4121Z" fill="white"/>
<path d="M11.9174 44.6344C10.084 44.6344 10.084 44.6344 10.084 42.8009C10.084 40.9102 10.084 40.9102 12.032 40.9102C13.8655 40.9102 13.8655 40.9102 13.8655 42.7436C13.8655 44.6344 13.8655 44.6344 11.9174 44.6344Z" fill="white"/>
<path d="M11.8598 58.4425C10.0264 58.4425 10.0264 58.4425 10.0264 56.6663C10.0264 54.7183 10.0264 54.7183 11.9744 54.7183C13.8079 54.7183 13.8079 54.7183 13.8079 56.609C13.8079 58.6717 14.1517 58.4425 11.8598 58.4425Z" fill="white"/>
<path d="M37.5283 56.4944C37.5283 54.7183 37.5283 54.7183 39.3045 54.7183C41.3098 54.7183 41.3098 54.7183 41.3098 56.7236C41.3098 58.6717 41.5963 58.3852 39.6483 58.4425C39.591 58.4425 39.591 58.4425 39.5337 58.4425C37.5283 58.4425 37.5283 58.4425 37.5283 56.4944Z" fill="white"/>
<path d="M27.5589 70.2456C27.5589 72.1936 27.5589 72.1936 25.6108 72.1936C23.7773 72.1936 23.7773 72.1936 23.7773 70.4175C23.7773 68.4121 23.7773 68.4121 25.7827 68.4121C27.5589 68.4121 27.5589 68.4121 27.5589 70.2456Z" fill="white"/>
<path d="M41.3098 42.7435C41.3098 44.6343 41.3098 44.6343 39.3618 44.6343C37.5283 44.6343 37.5283 44.6343 37.5283 42.7435C37.5283 40.8528 37.5283 40.8528 39.4764 40.8528C41.3098 40.8528 41.3098 40.8528 41.3098 42.7435Z" fill="white"/>
<path d="M89.4956 78.8398C89.4956 88.4082 81.7034 96.2004 72.135 96.1431C62.5666 96.1431 54.7744 88.2936 54.7744 78.7825C54.7744 69.2142 62.5666 61.4792 72.135 61.4792C81.7607 61.5365 89.4956 69.2715 89.4956 78.8398ZM73.682 70.2455C73.682 69.2142 73.682 68.1828 73.682 67.1515C73.682 66.8077 73.682 66.464 73.5101 66.1202C73.109 65.4326 72.4788 65.1462 71.7339 65.3753C70.9318 65.6045 70.588 66.1775 70.5307 66.9796C70.5307 69.0996 70.5307 71.2768 70.5307 73.3967C70.5307 73.7978 70.5307 74.1416 70.0151 74.3708C67.7805 75.5167 66.8065 77.522 67.2076 79.8139C67.5513 81.7619 69.2702 83.4808 71.2183 83.7673C73.5101 84.111 75.4581 83.137 76.6041 80.9598C76.8332 80.5587 77.0051 80.3868 77.4635 80.4441C78.5521 80.5014 79.5834 80.5014 80.672 80.4441C81.6461 80.3868 82.2763 79.6993 82.2763 78.8398C82.2763 77.9804 81.6461 77.3501 80.672 77.3501C79.6407 77.2928 78.6094 77.3501 77.5781 77.3501C77.177 77.3501 76.8905 77.2928 76.7187 76.8345C76.203 75.6886 75.3436 74.8291 74.1976 74.3708C73.7393 74.1989 73.682 73.9124 73.682 73.5113C73.7393 72.3654 73.682 71.2768 73.682 70.2455Z" fill="white"/>
<path d="M73.6826 70.2456C73.6826 71.3342 73.6826 72.3655 73.6826 73.4541C73.6826 73.8552 73.6826 74.1417 74.1983 74.3135C75.3442 74.7719 76.2036 75.6313 76.7193 76.7773C76.8912 77.2356 77.1777 77.2929 77.5787 77.2929C78.61 77.2929 79.6414 77.2929 80.6727 77.2929C81.6467 77.2929 82.277 77.9232 82.277 78.7826C82.277 79.642 81.6467 80.3296 80.6727 80.3869C79.5841 80.4442 78.5528 80.4442 77.4641 80.3869C77.0058 80.3869 76.8339 80.5588 76.6047 80.9025C75.4588 83.0798 73.5107 84.0538 71.2189 83.71C69.2709 83.4236 67.552 81.7047 67.2082 79.7566C66.8071 77.4648 67.7812 75.4595 70.0157 74.3135C70.5314 74.0844 70.5314 73.7406 70.5314 73.3395C70.5314 71.2196 70.5314 69.0423 70.5314 66.9224C70.5314 66.1203 70.8751 65.49 71.7346 65.3181C72.4794 65.1462 73.1097 65.3754 73.5107 66.063C73.6826 66.4067 73.6826 66.7505 73.6826 67.0943C73.7399 68.1256 73.6826 69.1569 73.6826 70.2456ZM74.0837 78.7826C74.0264 77.7513 73.1097 76.8919 72.1356 76.9491C71.1043 77.0064 70.3022 77.8659 70.3595 78.9545C70.4168 79.9858 71.2189 80.7307 72.2502 80.7307C73.2243 80.7307 74.0837 79.8139 74.0837 78.7826Z" fill="#055FC8"/>
<path d="M74.0832 78.7826C74.1405 79.8139 73.2238 80.6734 72.1925 80.6734C71.1612 80.6734 70.359 79.9285 70.3017 78.8972C70.2444 77.8659 71.0466 76.9491 72.0779 76.8918C73.1092 76.8918 74.0259 77.8086 74.0832 78.7826Z" fill="#6EC6D8"/>
</svg>
