<svg width="75" height="90" viewBox="0 0 75 90" fill="none" xmlns="http://www.w3.org/2000/svg">
<path fill-rule="evenodd" clip-rule="evenodd" d="M70.1516 50.9142C70.1516 49.3404 70.6106 48.8158 72.1189 48.4223C72.1189 46.7829 72.1189 45.1435 72.0533 43.5041C70.8073 43.2418 70.086 42.5861 70.086 41.5368C70.0204 40.422 70.6762 39.7663 72.0533 39.4384V34.5202C70.6106 34.1923 70.086 33.6021 70.086 32.0283V1.99435C70.086 1.20744 69.8893 0.94513 69.1024 1.01071C68.5778 1.05442 68.0531 1.03985 67.5285 1.02528C67.2662 1.01799 67.0039 1.01071 66.7416 1.01071H51.7246C51.6679 1.01071 51.6111 1.00797 51.5549 1.00527C51.2217 0.98924 50.9093 0.97421 50.741 1.53532C50.6114 1.96128 50.48 2.38609 50.347 2.8099H22.0853C21.9752 2.47283 21.8656 2.13541 21.7563 1.79762C21.5596 1.14186 21.2972 1.01071 20.7071 1.01071H3.26379C2.54245 1.01071 2.3457 1.14186 2.3457 1.92877V86.1287C2.3457 86.85 2.47687 87.0468 3.26379 87.0468H23.7892C24.5105 87.0468 24.7072 86.9156 24.7072 86.1287V67.8329C24.7072 65.8001 25.2974 65.1443 27.3303 65.1443H45.167C47.1343 65.1443 47.7901 65.8001 47.7901 67.7673C47.7901 69.8027 47.7974 71.8306 47.8047 73.8562C47.8192 77.9001 47.8338 81.9342 47.7901 85.9975C47.7901 86.9812 48.1179 87.1123 48.9704 87.1123C55.6592 87.0468 62.2824 87.0468 68.9712 87.1123C69.8893 87.1123 70.1516 86.9156 70.1516 85.932V50.9142ZM23.9203 25.8641V31.3069C23.9203 32.1922 23.9367 33.0775 23.9531 33.9628C23.9695 34.8481 23.9859 35.7333 23.9859 36.6186C23.9203 38.1269 23.199 38.9138 21.6907 38.9138H12.6412C11.1985 38.9138 10.4116 38.1269 10.4116 36.6842V25.9297C10.4116 24.5526 11.1985 23.7657 12.5756 23.7657H21.8219C23.1334 23.7657 23.9203 24.5526 23.9203 25.8641ZM43.0686 25.9953V31.3725V36.4875C43.0686 38.0613 42.3472 38.8482 40.7734 38.8482H31.855C30.3468 38.8482 29.5599 38.1269 29.5599 36.6186V25.9953C29.5599 24.5526 30.2812 23.7657 31.7239 23.7657H40.9046C42.2817 23.7657 43.0686 24.5526 43.0686 25.9953ZM48.6426 36.4875V31.2414V26.1264C48.6426 24.487 49.3639 23.7657 51.0033 23.7657H59.8561C61.4299 23.7657 62.2169 24.487 62.2169 26.0608V36.6186C62.2169 38.1925 61.4299 38.9138 59.8561 38.9138H51.0033C49.3639 38.8482 48.6426 38.1269 48.6426 36.4875ZM10.4116 57.144V51.8979V46.7829C10.4116 45.1435 11.1329 44.4222 12.7723 44.4222H21.6251C23.199 44.4222 23.9859 45.1435 23.9859 46.7174V57.2751C23.9859 58.849 23.199 59.5703 21.6251 59.5703H12.7723C11.1329 59.5047 10.4116 58.7834 10.4116 57.144ZM43.0686 46.6518V52.0946V57.4063C43.003 58.849 42.2817 59.6359 40.839 59.6359H31.6583C30.2812 59.6359 29.4943 58.849 29.4943 57.4719V46.6518C29.4943 45.2747 30.2812 44.4878 31.5927 44.4878H40.9701C42.2817 44.4878 43.0686 45.3403 43.0686 46.6518ZM48.6426 57.144V51.8979V46.7174C48.6426 45.078 49.3639 44.3566 51.0033 44.3566H59.8561C61.4955 44.4222 62.2169 45.1435 62.2169 46.7829V57.144C62.2169 58.849 61.4955 59.5703 59.8561 59.5703H51.0033C49.3639 59.5047 48.6426 58.7834 48.6426 57.144Z" fill="#6EC6D8"/>
<path d="M72.1187 43.5042C70.8071 43.2419 70.1514 42.5861 70.1514 41.5369C70.1514 40.4877 70.7416 39.7664 72.1187 39.4385C73.4958 39.7664 74.1515 40.4221 74.0859 41.5369C74.0859 42.5861 73.4302 43.2419 72.1187 43.5042Z" fill="#055FC8"/>
<path d="M28.7725 78.1285C28.7725 75.4399 28.7725 72.7512 28.7725 70.0626C28.7725 69.4068 28.838 69.1445 29.6249 69.1445C34.0841 69.2101 38.6089 69.2101 43.0681 69.1445C43.7894 69.1445 43.9206 69.3413 43.9206 70.0626C43.9206 75.4399 43.9206 80.8171 43.9206 86.1944C43.9206 86.8501 43.855 87.1124 43.0681 87.1124C38.6089 87.0468 34.0841 87.0468 29.6249 87.1124C28.9036 87.1124 28.7725 86.9157 28.7725 86.1944C28.7725 83.5057 28.7725 80.8171 28.7725 78.1285Z" fill="white"/>
<path d="M23.919 31.307C23.919 33.0776 23.919 34.8482 23.919 36.5531C23.919 38.0614 23.1321 38.8483 21.6239 38.8483C18.6073 38.8483 15.5908 38.8483 12.5743 38.8483C11.1316 38.8483 10.3447 38.0614 10.3447 36.6187C10.3447 33.012 10.3447 29.4709 10.3447 25.8642C10.3447 24.4871 11.1316 23.7002 12.5087 23.7002C15.5908 23.7002 18.6729 23.7002 21.755 23.7002C23.0665 23.7002 23.8534 24.4871 23.8534 25.7986C23.9846 27.7003 23.919 29.5365 23.919 31.307ZM14.4105 31.307C14.4105 32.2907 14.4105 33.2743 14.4105 34.258C14.4105 34.717 14.5416 34.8482 15.0006 34.8482C16.4433 34.8482 17.886 34.8482 19.3942 34.8482C19.8533 34.8482 19.9844 34.717 19.9844 34.258C19.9844 32.2907 19.9844 30.2578 19.9844 28.2905C19.9844 27.8315 19.8533 27.7003 19.3942 27.7003C17.9516 27.7003 16.5089 27.7003 15.0006 27.7003C14.5416 27.7003 14.3449 27.8315 14.4105 28.2905C14.4105 29.3398 14.4105 30.3234 14.4105 31.307Z" fill="#055FC8"/>
<path d="M43.0693 31.3726C43.0693 33.0776 43.0693 34.8481 43.0693 36.5531C43.0693 38.1269 42.3479 38.9138 40.7741 38.9138C37.8232 38.9138 34.8066 38.9138 31.8557 38.9138C30.3475 38.9138 29.5605 38.1269 29.5605 36.6842C29.5605 33.1431 29.5605 29.602 29.5605 26.0609C29.5605 24.6182 30.3475 23.8313 31.7246 23.8313C34.8067 23.8313 37.8232 23.8313 40.9053 23.8313C42.3479 23.8313 43.0693 24.6182 43.0693 26.0609C43.0693 27.7659 43.0693 29.602 43.0693 31.3726ZM33.4951 31.2414C33.4951 32.2906 33.4951 33.2743 33.4951 34.3235C33.4951 34.8481 33.6263 34.9137 34.0853 34.9137C35.528 34.9137 36.9707 34.9137 38.4789 34.9137C39.0035 34.9137 39.0691 34.7825 39.0691 34.3235C39.0691 32.3562 39.0691 30.3233 39.0691 28.3561C39.0691 27.897 38.938 27.7659 38.4789 27.7659C37.0362 27.7659 35.5936 27.7659 34.0853 27.7659C33.5607 27.7659 33.4951 27.897 33.4951 28.3561C33.5607 29.2741 33.4951 30.2578 33.4951 31.2414Z" fill="#055FC8"/>
<path d="M48.6416 31.2414C48.6416 29.5364 48.6416 27.8314 48.6416 26.192C48.6416 24.5526 49.3629 23.8313 51.0024 23.8313C53.9533 23.8313 56.9042 23.8313 59.8551 23.8313C61.429 23.8313 62.2159 24.5526 62.2159 26.1265C62.2159 29.6676 62.2159 33.1431 62.2159 36.6842C62.2159 38.2581 61.429 38.9794 59.8551 38.9794C56.9042 38.9794 53.9533 38.9794 51.0024 38.9794C49.3629 38.9794 48.6416 38.2581 48.6416 36.5531C48.6416 34.717 48.6416 32.9464 48.6416 31.2414ZM58.2157 31.4381C58.2157 30.3889 58.2157 29.4053 58.2157 28.3561C58.2157 27.897 58.0846 27.7659 57.6256 27.7659C56.1829 27.7659 54.7402 27.7659 53.2319 27.7659C52.7729 27.7659 52.6418 27.897 52.6418 28.3561C52.6418 30.3233 52.6418 32.3562 52.6418 34.3235C52.6418 34.7825 52.7729 34.9137 53.2319 34.9137C54.6746 34.9137 56.1173 34.9137 57.6256 34.9137C58.0846 34.9137 58.2813 34.7825 58.2157 34.3235C58.1502 33.3399 58.2157 32.3562 58.2157 31.4381Z" fill="#055FC8"/>
<path d="M10.4111 51.8977C10.4111 50.1927 10.4111 48.4877 10.4111 46.8483C10.4111 45.2089 11.1325 44.4875 12.7719 44.4875C15.7228 44.4875 18.6737 44.4875 21.6247 44.4875C23.1985 44.4875 23.9854 45.2089 23.9854 46.7827C23.9854 50.3238 23.9854 53.7994 23.9854 57.3405C23.9854 58.9143 23.1985 59.6357 21.6247 59.6357C18.6737 59.6357 15.7228 59.6357 12.7719 59.6357C11.1325 59.6357 10.4111 58.9143 10.4111 57.2093C10.4111 55.4388 10.4111 53.6682 10.4111 51.8977ZM19.9853 51.9632C19.9853 50.9796 19.9853 50.0615 19.9853 49.0779C19.9853 48.6189 19.9197 48.4221 19.3951 48.4221C17.9524 48.4877 16.5097 48.4221 15.0015 48.4221C14.5424 48.4221 14.3457 48.4877 14.3457 49.0123C14.3457 50.9796 14.3457 53.0125 14.3457 54.9798C14.3457 55.4388 14.4113 55.6355 14.9359 55.6355C16.3786 55.5699 17.8213 55.5699 19.3295 55.6355C19.9197 55.6355 19.9853 55.4388 19.9853 54.9142C19.9197 53.9305 19.9853 52.9469 19.9853 51.9632Z" fill="#055FC8"/>
<path d="M43.0684 52.0943C43.0684 53.8649 43.0684 55.6354 43.0684 57.3404C43.0684 58.7831 42.2815 59.57 40.8388 59.57C37.7567 59.57 34.7402 59.57 31.6581 59.57C30.281 59.57 29.4941 58.7831 29.4941 57.406C29.4941 53.7993 29.4941 50.1926 29.4941 46.5859C29.4941 45.2744 30.281 44.4875 31.5926 44.4219C34.7402 44.4219 37.8223 44.4219 40.97 44.4219C42.2815 44.4219 43.0684 45.2744 43.0684 46.5859C43.0684 48.422 43.0684 50.2582 43.0684 52.0943ZM33.4943 51.9631C33.4943 53.0124 33.4943 53.996 33.4943 55.0452C33.4943 55.5043 33.6254 55.6354 34.0845 55.6354C35.5272 55.6354 36.9698 55.6354 38.4781 55.6354C38.9371 55.6354 39.0683 55.5043 39.0683 55.0452C39.0683 53.0779 39.0683 51.0451 39.0683 49.0778C39.0683 48.6188 38.9371 48.4876 38.4781 48.4876C37.0354 48.4876 35.5927 48.4876 34.0845 48.4876C33.6254 48.4876 33.4943 48.6188 33.4943 49.0778C33.5599 49.9959 33.4943 50.9795 33.4943 51.9631Z" fill="#055FC8"/>
<path d="M48.6416 51.8977C48.6416 50.1927 48.6416 48.4877 48.6416 46.8483C48.6416 45.2089 49.3629 44.4875 51.0024 44.4875C53.9533 44.4875 56.9042 44.4875 59.8551 44.4875C61.4946 44.4875 62.2159 45.2089 62.2159 46.9139C62.2159 50.3894 62.2159 53.7994 62.2159 57.2749C62.2159 58.9143 61.4946 59.6357 59.8551 59.7012C56.9042 59.7012 53.9533 59.7012 51.0024 59.7012C49.3629 59.7012 48.6416 58.9799 48.6416 57.2749C48.6416 55.4388 48.6416 53.6682 48.6416 51.8977ZM58.2157 52.0944C58.2157 51.0452 58.2157 50.0615 58.2157 49.0123C58.2157 48.5533 58.0846 48.4221 57.6256 48.4877C56.1173 48.4877 54.6746 48.4877 53.1664 48.4877C52.7073 48.4877 52.5762 48.6189 52.6418 49.0779C52.6418 51.1108 52.6418 53.1436 52.6418 55.1109C52.6418 55.5699 52.7729 55.7011 53.2319 55.6355C54.7402 55.6355 56.1829 55.6355 57.6911 55.6355C58.1502 55.6355 58.2813 55.5044 58.2157 55.0453C58.1502 54.0617 58.2157 53.078 58.2157 52.0944Z" fill="#055FC8"/>
<path d="M14.4111 31.307C14.4111 30.3233 14.4111 29.3397 14.4111 28.3561C14.4111 27.897 14.5423 27.7659 15.0013 27.7659C16.444 27.7659 17.8867 27.7659 19.3949 27.7659C19.8539 27.7659 19.9851 27.897 19.9851 28.3561C19.9851 30.3233 19.9851 32.3562 19.9851 34.3235C19.9851 34.7825 19.8539 34.9137 19.3949 34.9137C17.9522 34.9137 16.5096 34.9137 15.0013 34.9137C14.5423 34.9137 14.4111 34.7825 14.4111 34.3235C14.4111 33.2743 14.4111 32.2906 14.4111 31.307Z" fill="white"/>
<path d="M33.4937 31.2413C33.4937 30.2576 33.4937 29.3395 33.4937 28.3559C33.4937 27.8969 33.6249 27.7001 34.0839 27.7657C35.5266 27.7657 36.9693 27.7657 38.4775 27.7657C38.9366 27.7657 39.1333 27.8969 39.0677 28.3559C39.0677 30.3232 39.0677 32.3561 39.0677 34.3233C39.0677 34.7824 38.9366 34.9791 38.4775 34.9135C37.0349 34.9135 35.5922 34.9135 34.0839 34.9135C33.6249 34.9135 33.4282 34.7824 33.4937 34.3233C33.5593 33.2741 33.4937 32.2249 33.4937 31.2413Z" fill="white"/>
<path d="M58.2166 31.4381C58.2166 32.4218 58.2166 33.3399 58.2166 34.3235C58.2166 34.7825 58.0854 34.9137 57.6264 34.9137C56.1837 34.9137 54.741 34.9137 53.2328 34.9137C52.7737 34.9137 52.6426 34.7825 52.6426 34.3235C52.6426 32.3562 52.6426 30.3233 52.6426 28.3561C52.6426 27.897 52.7737 27.7659 53.2328 27.7659C54.6754 27.7659 56.1181 27.7659 57.6264 27.7659C58.0854 27.7659 58.2166 27.897 58.2166 28.3561C58.151 29.3397 58.2166 30.3889 58.2166 31.4381Z" fill="white"/>
<path d="M19.9853 51.9632C19.9853 52.9469 19.9853 53.9305 19.9853 54.9142C19.9853 55.3732 19.9197 55.6355 19.3295 55.6355C17.8868 55.5699 16.4441 55.5699 14.9359 55.6355C14.4113 55.6355 14.3457 55.4388 14.3457 54.9797C14.3457 53.0125 14.3457 50.9796 14.3457 49.0123C14.3457 48.4877 14.5424 48.4221 15.0015 48.4221C16.4441 48.4221 17.8868 48.4221 19.3951 48.4221C19.9197 48.4221 19.9853 48.6188 19.9853 49.0779C19.9197 49.9959 19.9853 50.9796 19.9853 51.9632Z" fill="white"/>
<path d="M33.4937 51.9634C33.4937 50.9798 33.4937 50.0617 33.4937 49.0781C33.4937 48.619 33.6249 48.4223 34.0839 48.4879C35.5266 48.4879 36.9693 48.4879 38.4775 48.4879C38.9366 48.4879 39.0677 48.619 39.0677 49.0781C39.0677 51.0454 39.0677 53.0782 39.0677 55.0455C39.0677 55.5045 38.9366 55.7013 38.4775 55.6357C37.0349 55.6357 35.5922 55.6357 34.0839 55.6357C33.6249 55.6357 33.4282 55.5045 33.4937 55.0455C33.5593 53.9963 33.4937 52.9471 33.4937 51.9634Z" fill="white"/>
<path d="M58.2166 52.0945C58.2166 53.0781 58.2166 54.0618 58.2166 55.0454C58.2166 55.5045 58.0854 55.6356 57.692 55.6356C56.1837 55.6356 54.741 55.6356 53.2328 55.6356C52.7737 55.6356 52.6426 55.5045 52.6426 55.111C52.6426 53.0781 52.6426 51.0453 52.6426 49.078C52.6426 48.6189 52.7737 48.4878 53.1672 48.4878C54.6754 48.4878 56.1181 48.4878 57.6264 48.4878C58.0854 48.4878 58.2166 48.6189 58.2166 49.0124C58.151 49.996 58.2166 51.0453 58.2166 52.0945Z" fill="white"/>
<path d="M69.4371 52.5969V85.5048C69.4371 86.6094 68.5417 87.5048 67.4371 87.5048H3.91016C2.80559 87.5048 1.91016 86.6094 1.91016 85.5048V3.66553C1.91016 2.56096 2.80559 1.66553 3.91016 1.66553H67.4371C68.5417 1.66553 69.4371 2.56096 69.4371 3.66553V30.8509" stroke="#055FC8" stroke-width="3" stroke-linecap="round"/>
<path d="M25.9453 87.5048V67.7588C25.9453 66.6542 26.8407 65.7588 27.9453 65.7588H44.5467C45.6513 65.7588 46.5467 66.6542 46.5467 67.7588V87.5048" stroke="#055FC8" stroke-width="3" stroke-linecap="round"/>
</svg>
