<svg width="97" height="93" viewBox="0 0 97 93" fill="none" xmlns="http://www.w3.org/2000/svg">
<path d="M63.7037 41.0028C63.0288 41.0028 62.4153 41.0028 61.8017 41.0028C56.2185 41.0028 50.6353 41.0028 45.0521 41.0028C44.2545 41.0028 44.0091 41.1255 44.0705 41.9844C44.1318 45.6657 44.0705 49.2855 44.0705 52.9668C44.0705 56.0958 42.1685 57.9978 39.0394 57.9978C28.0571 57.9978 17.0134 57.9978 6.03103 57.9978C2.90198 57.9978 1 56.0958 1 52.9668C1 46.0338 1 39.1008 1 32.1678C1 29.1001 2.90196 27.1981 5.96965 27.1981C10.6326 27.1981 15.2955 27.1368 19.897 27.1981C20.8787 27.1981 21.0014 26.8914 21.0014 26.0324C20.94 18.4245 21.0014 10.7553 21.0014 3.14739C21.0014 1.49083 21.4922 1 23.0874 1C44.2545 1 65.4216 1 86.5887 1C88.3066 1 88.7361 1.49083 88.7361 3.20874C88.7361 12.8413 88.7361 22.4739 88.7361 32.1064C88.7361 32.7813 88.9202 33.2108 89.4724 33.5789C95.1169 37.6283 97.6324 44.7453 95.8531 51.617C94.1966 58.1205 88.4907 63.0902 81.7417 63.9491C71.0662 65.2989 61.9244 56.7707 62.5993 46.0338C62.6607 44.3772 63.0902 42.7207 63.7037 41.0028ZM54.8074 8.66924C48.8561 8.66924 42.9661 8.66924 37.0148 8.66924C36.6466 8.66924 36.2785 8.54653 36.0944 9.16007C35.1741 12.8413 32.7813 15.1728 29.1614 16.0931C28.7319 16.2158 28.6706 16.3385 28.6706 16.7066C28.6706 19.5289 28.6706 22.3512 28.6706 25.1734C28.6706 25.4189 28.6706 25.6029 28.9774 25.7256C31.2475 26.5232 33.3948 27.4435 35.9104 27.0754C36.8307 26.9527 37.8123 27.0754 38.794 27.0754C42.2298 27.0754 44.0704 28.8547 44.0091 32.2905C44.0091 33.0881 44.2545 33.2722 44.9908 33.2722C52.5987 33.2108 60.2679 33.2108 67.8758 33.2722C69.0415 33.2722 70.0845 33.1495 71.0048 32.4132C71.7411 31.861 72.6 31.5542 73.3976 31.2475C73.8271 31.1248 74.0725 30.8794 74.3179 30.4499C75.6064 28.0571 77.5697 26.5232 80.1466 25.8483C80.7601 25.7256 80.9441 25.4802 80.9441 24.8667C80.8828 22.2898 80.8828 19.6516 80.9441 17.0747C80.9441 16.4612 80.8214 16.1544 80.1466 15.9704C76.7107 15.05 74.502 12.78 73.5817 9.34413C73.3976 8.73059 73.2136 8.54653 72.6 8.54653C66.7101 8.66924 60.7587 8.66924 54.8074 8.66924ZM79.4716 33.3335C71.741 33.3335 65.6057 39.5916 65.6057 47.3222C65.667 54.8687 71.9251 61.0655 79.533 61.0655C87.0795 61.0655 93.3376 54.746 93.2763 47.1381C93.2763 39.4689 87.0795 33.2722 79.4716 33.3335ZM22.5966 42.5366C16.7066 42.5366 10.8166 42.5366 4.86529 42.5366C4.12904 42.5366 3.94498 42.7207 3.94498 43.4569C4.00633 46.586 3.94498 49.715 3.94498 52.9054C3.94498 54.4393 4.4358 54.9301 5.96965 54.9301C16.952 54.9301 27.9344 54.9301 38.8554 54.9301C40.3892 54.9301 40.88 54.4393 40.88 52.9054C40.88 49.7764 40.88 46.6473 40.88 43.4569C40.88 42.7207 40.696 42.5366 40.0211 42.5366C34.2538 42.598 28.4252 42.5366 22.5966 42.5366ZM78.7968 30.1431C80.8828 30.1431 82.9075 30.4499 84.8094 31.1248C85.423 31.3702 85.607 31.2475 85.607 30.5726C85.607 22.0444 85.607 13.5162 85.607 4.988C85.607 4.25176 85.423 4.0677 84.6867 4.0677C64.7467 4.0677 44.868 4.0677 24.928 4.0677C24.1304 4.0677 24.0077 4.31311 24.0077 5.04936C24.0077 10.6939 24.0077 16.3385 24.0077 21.983C24.0077 23.5169 24.0077 24.9894 24.0077 26.5232C24.0077 27.0141 24.1304 27.1981 24.6826 27.1981C25.4188 27.2595 25.6029 27.0141 25.6029 26.2778C25.5416 22.5352 25.6029 18.854 25.6029 15.1114C25.6029 13.8843 26.0937 13.3935 27.3208 13.3321C30.5726 13.1481 33.0881 10.6326 33.2721 7.38081C33.3335 6.15373 33.8243 5.60154 35.0514 5.60154C48.2425 5.60154 61.4336 5.60154 74.6247 5.60154C75.8518 5.60154 76.3426 6.15373 76.4039 7.38081C76.588 10.6326 79.1035 13.1481 82.3553 13.3321C83.6437 13.3935 84.1346 13.8843 84.1346 15.2341C84.1346 19.0994 84.1346 23.0261 84.1346 26.8914C84.1346 28.1798 83.6437 28.6706 82.3553 28.7933C81.0055 28.7933 79.8398 29.1614 78.7968 30.1431ZM22.5352 36.4012C17.0134 36.4012 11.4915 36.4012 5.96965 36.4012C4.00633 36.4012 4.06767 36.4012 4.00632 38.3645C3.94497 39.3462 4.3131 39.5303 5.17206 39.5303C16.3998 39.4689 27.6276 39.5303 38.8554 39.5303C41.0028 39.5303 41.0028 39.5303 41.0028 37.3829C41.0028 36.5853 40.7573 36.4626 40.0211 36.4626C34.1925 36.4012 28.3638 36.4012 22.5352 36.4012ZM22.4125 33.3335C26.4619 33.3335 30.5112 33.3335 34.5606 33.3335C36.4626 33.3335 38.4259 33.3335 40.3278 33.3335C40.5733 33.3335 40.9414 33.5176 41.0028 32.9654C41.2482 31.1248 40.6346 30.2658 38.794 30.2658C27.9344 30.2658 17.1361 30.2658 6.27642 30.2658C4.49716 30.2658 4.0677 30.6953 4.0677 32.4746C4.0677 33.2108 4.25173 33.3949 4.92663 33.3949C10.7552 33.2722 16.5839 33.3335 22.4125 33.3335ZM66.2805 36.4012C61.1882 36.4012 56.1572 36.4012 51.1262 36.4012C49.0401 36.4012 46.9541 36.4012 44.868 36.4012C44.3159 36.4012 44.0705 36.5239 44.0705 37.1375C44.0705 37.8737 44.3772 37.9351 44.9908 37.9351C51.2489 37.9351 57.5683 37.8737 63.8264 37.9351C65.0535 37.9964 65.7897 37.6283 66.2805 36.4012Z" fill="#055FC8" stroke="#055FC8" stroke-miterlimit="10"/>
<path d="M19.2226 69.471C19.9588 69.471 21.1245 70.0232 22.2902 70.3913C25.4807 71.373 28.6711 72.3546 31.8001 73.3977C32.3523 73.5817 32.659 73.6431 32.9658 72.9068C33.3339 71.9865 34.0088 71.3116 34.8678 70.8208C40.2056 67.7531 45.5434 64.624 50.9425 61.5564C52.2923 60.7588 53.7034 60.8201 55.2373 61.3109C61.1886 63.2129 67.2013 65.0535 73.1526 66.9555C73.8889 67.2009 74.1956 67.1396 74.3797 66.342C74.8092 64.6854 75.4227 64.44 77.0793 64.9308C78.7358 65.4217 80.3924 65.9738 82.0489 66.4647C83.276 66.8941 83.6441 67.569 83.276 68.7961C81.19 75.4837 79.104 82.1099 77.0179 88.7361C76.6498 89.9632 75.9749 90.3313 74.7478 89.9632C73.0299 89.4724 71.312 88.9202 69.5941 88.368C68.1216 87.9385 67.7535 87.2636 68.2443 85.8525C68.5511 84.9935 68.367 84.6868 67.5081 84.4414C66.5877 84.1959 65.7902 84.2573 64.9312 84.6868C60.8819 86.8342 56.7711 88.8588 52.7218 91.0062C51.3106 91.7425 49.8995 91.9265 48.3657 91.4357C37.8128 88.1226 27.2599 84.8095 16.6457 81.5577C13.7007 80.6374 12.4736 78.2446 13.3939 75.2996C13.7007 74.3793 13.9461 73.3977 14.3142 72.4773C15.1118 70.6367 16.7684 69.471 19.2226 69.471ZM50.1449 88.7361C50.5744 88.7361 50.9425 88.5521 51.3106 88.368C55.2986 86.3433 59.2867 84.3187 63.2747 82.1713C65.1153 81.1896 66.8332 80.8215 68.7965 81.6804C69.3487 81.9258 69.5941 81.8645 69.7782 81.1896C70.8212 77.7538 71.8642 74.2566 73.0299 70.8208C73.214 70.2073 73.0299 70.0845 72.5391 69.9005C66.4037 67.9985 60.2683 66.0965 54.1329 64.1332C53.458 63.8878 52.8445 64.0105 52.231 64.3786C51.0652 65.0535 49.8995 65.7284 48.7338 66.4033C44.7458 68.7348 40.7578 71.0049 36.7698 73.3363C35.604 74.0112 35.42 74.6861 36.0335 75.8518C36.3403 76.404 36.6471 77.0175 36.8925 77.5697C37.8128 79.2876 38.3036 79.4717 40.0829 78.5514C43.8255 76.5881 47.6294 74.5634 51.372 72.6001C52.3536 72.1092 53.2739 72.2933 53.7034 73.1522C54.1329 73.9498 53.8262 74.8088 52.8445 75.2996C48.7951 77.447 44.7458 79.5944 40.6964 81.6804C38.4263 82.8462 35.8495 81.9872 34.561 79.7785C34.1316 79.0422 33.7634 78.2446 33.334 77.5084C33.1499 77.2016 32.9658 76.9562 32.5977 76.8335C28.1802 75.4837 23.7627 74.0725 19.2839 72.7228C18.3022 72.416 17.566 72.7841 17.2592 73.7658C16.9525 74.5634 16.7684 75.361 16.523 76.1586C16.0935 77.6311 16.4002 78.2446 17.8114 78.6741C28.3643 81.9872 38.8558 85.239 49.4086 88.5521C49.6541 88.6134 49.9608 88.6748 50.1449 88.7361ZM74.1956 86.5887C74.6251 86.5887 74.5638 86.1593 74.6865 85.8525C76.2203 80.9442 77.7542 76.0972 79.288 71.1889C80.0243 68.7961 80.0243 68.8575 77.5701 68.2439C77.0793 68.1212 76.9566 68.3053 76.8339 68.6734C76.4657 69.9005 76.0976 71.1276 75.6682 72.3546C74.3797 76.5881 73.0299 80.7601 71.7415 84.9936C71.6801 85.3003 71.312 85.6684 71.8642 85.8525C72.6618 86.0979 73.398 86.3433 74.1956 86.5887Z" fill="#055FC8" stroke="#055FC8" stroke-miterlimit="10"/>
<path d="M54.8076 8.66919C60.7589 8.66919 66.6489 8.66919 72.6003 8.66919C73.2138 8.66919 73.4592 8.85325 73.5819 9.46679C74.5636 12.9026 76.7723 15.1113 80.1468 16.093C80.8217 16.2771 80.9444 16.5225 80.9444 17.1974C80.883 19.7742 80.883 22.4125 80.9444 24.9893C80.9444 25.6642 80.7603 25.8483 80.1468 25.971C77.5086 26.6459 75.5452 28.1797 74.3182 30.5725C74.1341 31.002 73.8273 31.2474 73.3978 31.3701C72.5389 31.6769 71.6799 31.9837 71.005 32.5359C70.0234 33.2721 68.9804 33.3948 67.876 33.3948C60.2681 33.3335 52.5989 33.3948 44.991 33.3948C44.1934 33.3948 43.948 33.2108 44.0093 32.4132C44.0707 29.0387 42.1687 27.1981 38.7942 27.1981C37.8126 27.1981 36.8309 27.0754 35.9106 27.1981C33.3951 27.5662 31.2477 26.6459 28.9776 25.8483C28.6095 25.7256 28.6708 25.5415 28.6708 25.2961C28.6708 22.4738 28.6708 19.6515 28.6708 16.8293C28.6708 16.4611 28.7935 16.2771 29.1617 16.2157C32.8429 15.2341 35.1744 12.964 36.0947 9.28273C36.2787 8.66919 36.6469 8.7919 37.015 8.7919C42.9663 8.66919 48.9176 8.66919 54.8076 8.66919ZM54.8076 11.7369C49.7152 11.7369 45.6045 15.909 45.6045 21.0013C45.6045 26.0937 49.7766 30.2044 54.869 30.2044C59.9 30.2044 64.072 26.0323 64.072 21.0627C64.072 15.909 59.9613 11.7369 54.8076 11.7369Z" fill="#FEFEFE"/>
<path d="M79.4721 33.3335C87.08 33.3335 93.2767 39.5302 93.3381 47.1381C93.3994 54.746 87.1413 61.0041 79.5948 61.0655C71.9256 61.0655 65.6674 54.9301 65.6674 47.3222C65.6061 39.5916 71.7415 33.3335 79.4721 33.3335ZM80.9446 42.5366C81.9876 42.5366 83.0306 42.5366 84.135 42.5366C85.0553 42.4752 85.6688 41.8617 85.6688 41.0027C85.6688 40.1438 85.0553 39.5302 84.135 39.4689C83.3988 39.4075 82.6625 39.4689 81.9262 39.4689C81.4354 39.4689 81.006 39.4689 80.8832 38.8553C80.7605 38.2418 80.147 37.935 79.5335 37.935C78.9199 37.935 78.3677 38.1805 78.1837 38.794C77.9996 39.3462 77.6928 39.4689 77.202 39.5302C74.7479 40.0211 73.1526 42.1685 73.3981 44.5613C73.6435 46.8927 75.6068 48.672 78.0609 48.672C78.9199 48.672 79.7789 48.672 80.6378 48.672C81.8035 48.672 82.6012 49.3469 82.6012 50.2058C82.6012 51.1261 81.8649 51.7397 80.6992 51.7397C78.7972 51.7397 76.8952 51.7397 75.0546 51.7397C74.073 51.7397 73.3981 52.4146 73.3981 53.2735C73.3981 54.1325 74.0116 54.8074 74.9933 54.8074C75.7909 54.8074 76.5271 54.8074 77.3247 54.8074C77.7542 54.8074 77.9996 54.8687 78.1223 55.3596C78.3064 56.0344 78.8586 56.3412 79.5335 56.3412C80.2697 56.3412 80.7605 55.9731 81.0059 55.2982C81.1286 54.8687 81.3741 54.8074 81.7422 54.746C84.2577 54.3165 85.9142 52.1691 85.7302 49.7763C85.5461 47.4449 83.4601 45.6043 81.0059 45.5429C80.0243 45.5429 79.104 45.5429 78.1223 45.5429C77.1407 45.5429 76.5271 44.868 76.5271 44.0091C76.5271 43.1501 77.202 42.5366 78.1837 42.4752C78.9813 42.5366 79.9629 42.5366 80.9446 42.5366Z" fill="#FEFEFE"/>
<path d="M22.5971 42.5366C28.4257 42.5366 34.2543 42.5366 40.083 42.5366C40.8192 42.5366 41.0033 42.7207 40.9419 43.4569C40.8805 46.586 40.9419 49.715 40.9419 52.9054C40.9419 54.3779 40.4511 54.9301 38.9172 54.9301C27.9349 54.9301 16.9525 54.9301 6.03155 54.9301C4.4977 54.9301 4.00684 54.4393 4.00684 52.9054C4.00684 49.7764 4.00684 46.6473 4.00684 43.4569C4.00684 42.7207 4.1909 42.5366 4.92714 42.5366C10.8171 42.598 16.7071 42.5366 22.5971 42.5366Z" fill="#FEFEFE"/>
<path d="M78.7967 30.1434C79.7784 29.2231 81.0055 28.7936 82.2939 28.7322C83.5823 28.6709 84.0731 28.1187 84.0731 26.8302C84.0731 22.965 84.0731 19.0383 84.0731 15.173C84.0731 13.8846 83.5823 13.3324 82.2939 13.271C79.0421 13.087 76.5266 10.5715 76.3426 7.3197C76.2812 6.09262 75.7904 5.54044 74.5633 5.54044C61.3722 5.54044 48.1811 5.54044 34.99 5.54044C33.7629 5.54044 33.2721 6.09262 33.2108 7.3197C33.0267 10.5715 30.5112 13.087 27.2594 13.271C26.0323 13.3324 25.5415 13.8846 25.5415 15.0503C25.5415 18.7929 25.5415 22.4741 25.5415 26.2167C25.5415 26.953 25.3575 27.1984 24.6212 27.137C24.1304 27.0757 23.9463 26.953 23.9463 26.4621C23.9463 24.9283 23.9463 23.4558 23.9463 21.9219C23.9463 16.2774 23.9463 10.6328 23.9463 4.98825C23.9463 4.25201 24.069 4.00659 24.8666 4.00659C44.8066 4.00659 64.6853 4.00659 84.6253 4.00659C85.3616 4.00659 85.5456 4.19065 85.5456 4.9269C85.5456 13.4551 85.5456 21.9833 85.5456 30.5115C85.5456 31.1864 85.3616 31.3091 84.748 31.0637C82.9074 30.4501 80.8827 30.1434 78.7967 30.1434Z" fill="#6EC6D8"/>
<path d="M22.5354 36.4012C28.3641 36.4012 34.1927 36.4012 40.0213 36.4012C40.7576 36.4012 41.003 36.5239 41.003 37.3215C40.9416 39.4689 41.003 39.4689 38.8556 39.4689C27.6278 39.4689 16.4001 39.4689 5.1723 39.4689C4.25199 39.4689 3.9452 39.2848 4.00656 38.3032C4.06791 36.3398 4.00656 36.3398 5.96989 36.3398C11.4917 36.4012 17.0136 36.4012 22.5354 36.4012Z" fill="#6EC6D8"/>
<path d="M22.4124 33.3334C16.5838 33.3334 10.7552 33.3334 4.92654 33.3334C4.19029 33.3334 4.00625 33.1493 4.06761 32.4131C4.12896 30.6952 4.55842 30.2043 6.27633 30.2043C17.136 30.2043 27.9343 30.2043 38.7939 30.2043C40.6345 30.2043 41.3094 31.0633 41.0027 32.9039C40.9413 33.4561 40.5732 33.272 40.3278 33.272C38.4258 33.272 36.4625 33.272 34.5605 33.272C30.5112 33.3334 26.4618 33.3334 22.4124 33.3334Z" fill="#FEFEFE"/>
<path d="M66.2804 36.4011C65.7896 37.6282 65.0533 37.9963 63.8262 37.9963C57.5681 37.935 51.2487 37.935 44.9906 37.9963C44.3771 37.9963 44.0703 37.8736 44.0703 37.1987C44.0703 36.5852 44.3157 36.4625 44.8679 36.4625C46.9539 36.4625 49.04 36.4625 51.126 36.4625C56.0957 36.4011 61.1267 36.4011 66.2804 36.4011Z" fill="#6EC6D8"/>
<path d="M50.1442 88.736C49.8988 88.6746 49.6533 88.6133 49.3466 88.5519C38.7937 85.2388 28.3022 81.987 17.7493 78.6739C16.3382 78.2445 16.0314 77.5696 16.4609 76.1584C16.7063 75.3608 16.9517 74.5632 17.1971 73.7656C17.5652 72.784 18.2402 72.4158 19.2218 72.7226C23.6393 74.0724 28.0567 75.4835 32.5356 76.8333C32.9037 76.956 33.1491 77.2014 33.2718 77.5082C33.64 78.3058 34.0694 79.0421 34.4989 79.7783C35.7873 82.0484 38.3029 82.846 40.6343 81.6803C44.6837 79.5942 48.733 77.4469 52.7824 75.2995C53.7027 74.8086 54.0095 73.9497 53.6413 73.1521C53.2119 72.2931 52.3529 72.0477 51.3099 72.5999C47.506 74.5632 43.7634 76.5265 40.0208 78.5512C38.2415 79.4715 37.7507 79.2875 36.8304 77.5696C36.5236 77.0174 36.2168 76.4652 35.9714 75.8516C35.3579 74.6246 35.542 74.011 36.7077 73.3361C40.6957 71.0047 44.6837 68.7346 48.6717 66.4031C49.8374 65.7283 51.0031 65.0534 52.1688 64.3785C52.7824 64.0103 53.3959 63.8876 54.0708 64.1331C60.2062 66.035 66.3416 67.9983 72.477 69.9003C72.9678 70.0844 73.1519 70.2071 72.9678 70.8206C71.8635 74.2564 70.7591 77.6923 69.7161 81.1894C69.532 81.8643 69.2866 81.9257 68.7344 81.6803C66.8324 80.8827 65.0532 81.1894 63.2125 82.1711C59.2859 84.3185 55.2365 86.2818 51.2485 88.3679C50.9418 88.5519 50.635 88.6746 50.1442 88.736Z" fill="#FEFEFE"/>
<path d="M74.1957 86.5887C73.3981 86.3433 72.6618 86.0979 71.9256 85.8525C71.312 85.6684 71.6802 85.3003 71.8029 84.9935C73.0913 80.7601 74.4411 76.588 75.7295 72.3546C76.0977 71.1275 76.5271 69.9005 76.8953 68.6734C77.018 68.3053 77.1407 68.1212 77.6315 68.2439C80.0856 68.7961 80.0857 68.7961 79.3494 71.1889C77.8156 76.0972 76.2817 80.9442 74.7479 85.8525C74.6252 86.1593 74.6252 86.5887 74.1957 86.5887Z" fill="#6EC6D8"/>
<path d="M54.8076 11.7371C59.9613 11.7371 64.072 15.9091 64.072 21.0629C64.072 26.0939 59.8999 30.2046 54.8689 30.2046C49.7765 30.2046 45.6045 26.0939 45.6045 21.0015C45.6045 15.9091 49.7152 11.7371 54.8076 11.7371ZM61.0043 21.0015C61.0043 17.6884 58.2434 14.8661 54.9303 14.8048C51.5558 14.8048 48.7335 17.5657 48.7335 20.9401C48.7335 24.2533 51.4945 27.0755 54.8076 27.1369C58.182 27.1982 61.0043 24.376 61.0043 21.0015Z" fill="#055FC8" stroke="#055FC8" stroke-miterlimit="10"/>
<path d="M80.9451 42.5365C79.9634 42.5365 79.0431 42.5365 78.0614 42.5365C77.0798 42.5365 76.4049 43.2114 76.4049 44.0704C76.4049 44.9293 77.0184 45.6042 78.0001 45.6042C78.9817 45.6042 79.9021 45.6042 80.8837 45.6042C83.3379 45.6656 85.3625 47.5062 85.6079 49.8376C85.8534 52.2304 84.1354 54.3778 81.6199 54.8073C81.2518 54.8687 81.0064 54.93 80.8837 55.3595C80.6997 56.0344 80.1475 56.4025 79.4112 56.4025C78.7363 56.4025 78.1841 56.0344 78.0001 55.4208C77.8774 54.93 77.632 54.8687 77.2025 54.8687C76.4049 54.8687 75.6686 54.8687 74.871 54.8687C73.8893 54.8073 73.2758 54.1938 73.2758 53.3348C73.2758 52.4759 73.9507 51.801 74.9324 51.801C76.8344 51.801 78.7363 51.801 80.5769 51.801C81.804 51.801 82.5403 51.1874 82.4789 50.2671C82.4789 49.4082 81.6813 48.7333 80.5156 48.7333C79.6566 48.7333 78.7977 48.7333 77.9387 48.7333C75.4845 48.6719 73.5212 46.954 73.2758 44.6226C73.0304 42.2298 74.6256 40.0824 77.0798 39.5915C77.5706 39.4688 77.9387 39.4075 78.0614 38.8553C78.2455 38.2418 78.7977 37.9963 79.4112 37.9963C80.0247 37.9963 80.5769 38.3031 80.761 38.9166C80.9451 39.5915 81.3132 39.5302 81.804 39.5302C82.5403 39.5302 83.2765 39.4688 84.0128 39.5302C84.9331 39.5915 85.5466 40.2051 85.5466 41.064C85.5466 41.923 84.9331 42.5365 84.0128 42.5979C83.0311 42.5979 81.9881 42.5365 80.9451 42.5365Z" fill="#055FC8" stroke="#055FC8" stroke-miterlimit="10"/>
<path d="M61.004 21.0014C61.004 24.3759 58.1817 27.1368 54.7459 27.1368C51.4328 27.1368 48.6719 24.3145 48.6719 20.9401C48.6719 17.5656 51.4941 14.8047 54.8686 14.8047C58.2431 14.866 61.004 17.6883 61.004 21.0014Z" fill="#6EC6D8"/>
</svg>
